<svg version="1.1" xmlns="http://www.w3.org/2000/svg" xmlns:xlink="http://www.w3.org/1999/xlink" viewBox="0 0 172 172"><g fill="none" fill-rule="nonzero" stroke="none" stroke-width="1" stroke-linecap="butt" stroke-linejoin="miter" stroke-miterlimit="10" stroke-dasharray="" stroke-dashoffset="0" font-family="none" font-weight="none" font-size="none" text-anchor="none" style="mix-blend-mode: normal"><path d="M0,172v-172h172v172z" fill="none"></path><path d="M86,156.52c-38.94712,0 -70.52,-31.57288 -70.52,-70.52v0c0,-38.94712 31.57288,-70.52 70.52,-70.52h0c38.94712,0 70.52,31.57288 70.52,70.52v0c0,38.94712 -31.57288,70.52 -70.52,70.52z" fill="#cccccc"></path><g fill="#000000"><path d="M53.54844,38.1401l-16.30417,16.125l8.24167,8.24167l16.125,-16.30417zM118.40677,38.1401l-18.63333,18.63333l16.125,16.125l18.63333,-18.63333zM65.73177,50.86094l-16.30417,16.30417l8.24167,8.0625l16.125,-16.30417zM85.9776,69.8526c-9.42864,0 -17.2,7.77136 -17.2,17.2c0,9.42864 7.77136,17.2 17.2,17.2c9.42864,0 17.2,-7.77136 17.2,-17.2c0,-9.42864 -7.77136,-17.2 -17.2,-17.2zM85.9776,81.31927c3.225,0 5.73333,2.50833 5.73333,5.73333c0,3.225 -2.50833,5.73333 -5.73333,5.73333c-3.225,0 -5.73333,-2.50833 -5.73333,-5.73333c0,-3.225 2.50833,-5.73333 5.73333,-5.73333zM74.51094,115.71927v11.46667h22.93333v-11.46667zM74.51094,132.91927v11.46667h22.93333v-11.46667z"></path></g></g></svg>